<?xml version="1.0" encoding="UTF-8"?>
<svg id="_レイヤー_2" data-name="レイヤー 2" xmlns="http://www.w3.org/2000/svg" viewBox="0 0 47.12 29.13">
  <defs>
    <style>
      .cls-1 {
        fill: #2a2d54;
      }
    </style>
  </defs>
  <g id="TOP">
    <g>
      <path class="cls-1" d="M8.71,3.44l7.36,24.7H1.32L8.71,3.44M8.71,0L0,29.12h17.39L8.71,0h0Z"/>
      <g>
        <g>
          <path class="cls-1" d="M35.88,18.95v.49h-1.38v3.82h-.56v-3.82h-1.38v-.49h3.32Z"/>
          <path class="cls-1" d="M18.16,18.93h.65l2.04,3.53v-3.53h.53v4.31h-.62l-2.07-3.52v3.52h-.53v-4.31Z"/>
          <path class="cls-1" d="M22.49,18.93h.56v4.31h-.56v-4.31Z"/>
          <path class="cls-1" d="M26.82,19.15c.4.21.65.59.74,1.12h-.55c-.07-.3-.2-.52-.41-.65s-.47-.2-.78-.2c-.37,0-.68.14-.94.43-.25.28-.38.71-.38,1.27,0,.49.1.88.31,1.19.21.31.55.46,1.03.46.36,0,.66-.11.9-.32.24-.21.36-.56.37-1.04h-1.28v-.46h1.8v2.19h-.36l-.13-.53c-.18.21-.35.35-.49.43-.24.14-.54.21-.91.21-.48,0-.89-.16-1.23-.47-.38-.39-.56-.94-.56-1.62s.18-1.23.55-1.64c.35-.39.8-.58,1.35-.58.38,0,.71.07.98.22Z"/>
          <path class="cls-1" d="M28.66,18.93h.56v1.8h2.11v-1.8h.56v4.31h-.56v-2.03h-2.11v2.03h-.56v-4.31Z"/>
        </g>
        <path class="cls-1" d="M21.24,25.22c.28.27.44.58.47.93h-.54c-.06-.26-.18-.47-.36-.63-.18-.15-.43-.23-.76-.23-.4,0-.72.14-.96.43s-.37.72-.37,1.31c0,.48.11.87.33,1.17.22.3.55.45.99.45.4,0,.71-.16.92-.47.11-.17.19-.38.25-.65h.54c-.05.43-.21.79-.47,1.09-.32.35-.76.53-1.3.53-.47,0-.87-.14-1.19-.43-.42-.38-.63-.97-.63-1.77,0-.6.16-1.1.47-1.49.34-.42.81-.63,1.41-.63.51,0,.91.14,1.19.41Z"/>
        <path class="cls-1" d="M26.07,25.51c.27.36.41.82.41,1.39,0,.61-.16,1.12-.47,1.52-.36.48-.88.71-1.56.71-.63,0-1.13-.21-1.49-.62-.32-.4-.48-.91-.48-1.52,0-.55.14-1.03.41-1.42.35-.5.88-.76,1.57-.76s1.26.23,1.61.7ZM25.58,28.11c.22-.35.33-.75.33-1.21,0-.48-.13-.87-.38-1.16s-.6-.44-1.03-.44-.77.15-1.04.44c-.27.29-.4.72-.4,1.29,0,.45.11.84.34,1.15s.6.47,1.12.47.84-.18,1.06-.53Z"/>
        <path class="cls-1" d="M27.1,24.81h.84l1.25,3.65,1.24-3.65h.84v4.32h-.56v-2.55c0-.09,0-.23,0-.44,0-.2,0-.42,0-.66l-1.24,3.64h-.58l-1.25-3.64v.13c0,.11,0,.27,0,.48,0,.22,0,.38,0,.48v2.55h-.56v-4.32Z"/>
        <path class="cls-1" d="M32.29,24.81h1.83c.36,0,.66.1.88.31.22.21.33.49.33.87,0,.32-.1.6-.3.84s-.5.36-.91.36h-1.28v1.95h-.56v-4.32ZM34.44,25.38c-.12-.06-.29-.09-.5-.09h-1.1v1.42h1.1c.25,0,.45-.05.6-.16.15-.11.23-.29.23-.56,0-.3-.11-.51-.33-.61Z"/>
        <path class="cls-1" d="M36.87,24.81h.63l1.49,4.32h-.61l-.43-1.29h-1.61l-.44,1.29h-.57l1.54-4.32ZM37.79,27.36l-.63-1.91-.66,1.91h1.29Z"/>
        <path class="cls-1" d="M39.61,24.81h.65l2.04,3.53v-3.53h.53v4.32h-.62l-2.07-3.53v3.53h-.53v-4.32Z"/>
        <path class="cls-1" d="M43.47,24.81h.65l1.18,1.97,1.18-1.97h.65l-1.55,2.45v1.87h-.56v-1.87l-1.55-2.45Z"/>
        <g>
          <path class="cls-1" d="M18.68,15.92c.01.23.07.42.16.57.18.27.49.41.94.41.2,0,.38-.03.55-.09.32-.12.48-.32.48-.62,0-.22-.07-.38-.2-.48-.14-.09-.35-.17-.64-.24l-.54-.13c-.35-.08-.6-.17-.75-.27-.25-.17-.38-.43-.38-.77,0-.37.12-.67.37-.91.25-.24.6-.35,1.05-.35.42,0,.77.1,1.07.31.29.21.44.54.44.99h-.52c-.03-.22-.08-.39-.17-.5-.16-.21-.44-.32-.83-.32-.31,0-.54.07-.68.21-.14.14-.21.3-.21.48,0,.2.08.35.24.44.11.06.35.13.72.22l.56.13c.27.06.48.15.62.26.25.19.38.47.38.83,0,.45-.16.78-.48.97s-.7.29-1.12.29c-.5,0-.89-.13-1.17-.39-.28-.26-.42-.61-.41-1.05h.52Z"/>
          <path class="cls-1" d="M25.16,13.04v.49h-1.38v3.83h-.56v-3.83h-1.38v-.49h3.32Z"/>
          <path class="cls-1" d="M29.29,13.04h1.86c.31,0,.56.05.76.14.38.18.57.5.57.97,0,.25-.05.45-.15.6-.1.16-.24.28-.43.38.16.07.28.15.36.26.08.11.13.28.14.52l.02.55c0,.16.02.47.04.55.03.13.09.21.18.25v.09h-.68s-.03-.08-.04-.14-.02-.16-.03-.32l-.03-.88c-.01-.27-.11-.45-.29-.54-.1-.05-.26-.08-.49-.08h-1.23v1.97h-.56v-4.32ZM31.09,14.93c.25,0,.45-.05.6-.16s.22-.29.22-.57c0-.29-.1-.49-.31-.6-.11-.06-.26-.08-.44-.08h-1.32v1.41h1.25Z"/>
          <path class="cls-1" d="M33.51,13.04h1.86c.31,0,.56.05.76.14.38.18.57.5.57.97,0,.25-.05.45-.15.6-.1.16-.24.28-.43.38.16.07.28.15.36.26.08.11.13.28.14.52l.02.55c0,.16.02.47.04.55.03.13.09.21.18.25v.09h-.68s-.03-.08-.04-.14-.02-.16-.03-.32l-.03-.88c-.01-.27-.11-.45-.29-.54-.1-.05-.26-.08-.49-.08h-1.23v1.97h-.56v-4.32ZM35.32,14.93c.25,0,.45-.05.6-.16s.22-.29.22-.57c0-.29-.1-.49-.31-.6-.11-.06-.26-.08-.44-.08h-1.32v1.41h1.25Z"/>
          <path class="cls-1" d="M37.18,13.04h.65l1.18,1.97,1.18-1.97h.65l-1.55,2.45v1.87h-.56v-1.87l-1.55-2.45Z"/>
          <path class="cls-1" d="M26.51,13.04h.63l1.49,4.32h-.61l-.43-1.29h-1.61l-.44,1.29h-.57l1.54-4.32ZM27.43,15.59l-.63-1.91-.66,1.91h1.29Z"/>
        </g>
      </g>
    </g>
  </g>
</svg>